<?xml version="1.0" encoding="UTF-8" standalone="no"?>
<!-- Created with Inkscape (http://www.inkscape.org/) -->

<svg
   xmlns:dc="http://purl.org/dc/elements/1.1/"
   xmlns:cc="http://creativecommons.org/ns#"
   xmlns:rdf="http://www.w3.org/1999/02/22-rdf-syntax-ns#"
   xmlns:svg="http://www.w3.org/2000/svg"
   xmlns="http://www.w3.org/2000/svg"
   xmlns:sodipodi="http://sodipodi.sourceforge.net/DTD/sodipodi-0.dtd"
   xmlns:inkscape="http://www.inkscape.org/namespaces/inkscape"
   width="512"
   height="512"
   id="svg2"
   version="1.1"
   inkscape:version="0.48.5 r10040"
   inkscape:export-filename="E:\Netten Asset\GooglePlay\Icon512.png"
   inkscape:export-xdpi="90"
   inkscape:export-ydpi="90"
   sodipodi:docname="New document 1">
  <defs
     id="defs4" />
  <sodipodi:namedview
     id="base"
     pagecolor="#ffffff"
     bordercolor="#666666"
     borderopacity="1.0"
     inkscape:pageopacity="0.0"
     inkscape:pageshadow="2"
     inkscape:zoom="0.7"
     inkscape:cx="-125.6637"
     inkscape:cy="331.15489"
     inkscape:document-units="px"
     inkscape:current-layer="layer1"
     showgrid="true"
     inkscape:window-width="1920"
     inkscape:window-height="1028"
     inkscape:window-x="-8"
     inkscape:window-y="-8"
     inkscape:window-maximized="1">
    <inkscape:grid
       type="xygrid"
       id="grid2985"
       empspacing="5"
       visible="true"
       enabled="true"
       snapvisiblegridlinesonly="true" />
  </sodipodi:namedview>
  <metadata
     id="metadata7">
    <rdf:RDF>
      <cc:Work
         rdf:about="">
        <dc:format>image/svg+xml</dc:format>
        <dc:type
           rdf:resource="http://purl.org/dc/dcmitype/StillImage" />
        <dc:title></dc:title>
      </cc:Work>
    </rdf:RDF>
  </metadata>
  <g
     inkscape:label="Layer 1"
     inkscape:groupmode="layer"
     id="layer1"
     transform="translate(0,-540.36217)">
    <g
       id="g3912"
       transform="matrix(4.8761905,0,0,4.8761905,-572.95238,-3689.0611)">
      <rect
         y="867.36218"
         x="125"
         height="90"
         width="90"
         id="rect3757"
         style="fill:#ff80ff;fill-opacity:1;stroke:none" />
      <path
         inkscape:connector-curvature="0"
         id="path2987-1"
         d="m 143,885.36218 0,50 10,0 0,-50 z"
         style="fill:#000000;fill-opacity:1;stroke:none" />
      <path
         inkscape:connector-curvature="0"
         id="path2987-1-7"
         d="m 143,891.36218 0,50 10,0 0,-50 z"
         style="fill:#000000;fill-opacity:1;stroke:none" />
      <path
         inkscape:connector-curvature="0"
         id="path2987-1-4"
         d="m 147,891.36218 0,50 10,0 0,-50 z"
         style="fill:#000000;fill-opacity:1;stroke:none" />
      <path
         inkscape:connector-curvature="0"
         id="path2987-1-0"
         d="m 147,885.36218 0,50 10,0 0,-50 z"
         style="fill:#000000;fill-opacity:1;stroke:none" />
      <path
         inkscape:connector-curvature="0"
         id="path2987"
         d="m 145,887.36218 0,50 10,0 0,-50 z"
         style="fill:#ffffff;fill-opacity:1;stroke:none" />
      <path
         inkscape:connector-curvature="0"
         id="path3759-9"
         d="m 163,885.36218 0,50 30,0 0,-50 -30,0 z m 10,10 10,0 0,30 -10,0 0,-30 z"
         style="fill:#000000;fill-opacity:1;stroke:none" />
      <path
         inkscape:connector-curvature="0"
         id="path3759-9-4"
         d="m 167,885.36218 0,50 30,0 0,-50 -30,0 z m 10,10 10,0 0,30 -10,0 0,-30 z"
         style="fill:#000000;fill-opacity:1;stroke:none" />
      <path
         inkscape:connector-curvature="0"
         id="path3759-9-8"
         d="m 163,891.36218 0,50 30,0 0,-50 -30,0 z m 10,10 10,0 0,30 -10,0 0,-30 z"
         style="fill:#000000;fill-opacity:1;stroke:none" />
      <path
         inkscape:connector-curvature="0"
         id="path3759-9-82"
         d="m 167,891.36218 0,50 30,0 0,-50 -30,0 z m 10,10 10,0 0,30 -10,0 0,-30 z"
         style="fill:#000000;fill-opacity:1;stroke:none" />
      <path
         inkscape:connector-curvature="0"
         id="path3759"
         d="m 165,887.36218 0,50 30,0 0,-50 -30,0 z m 10,10 10,0 0,30 -10,0 0,-30 z"
         style="fill:#ffffff;fill-opacity:1;stroke:none" />
      <rect
         y="957.36218"
         x="125"
         height="15"
         width="90"
         id="rect3757-4"
         style="fill:#ff80ff;fill-opacity:1;stroke:none" />
      <rect
         y="957.36218"
         x="125"
         height="15"
         width="90"
         id="rect3757-4-5"
         style="fill:#000000;fill-opacity:0.25098039;stroke:none" />
    </g>
  </g>
</svg>
